<?xml version="1.0" encoding="UTF-8" standalone="no"?>
<!DOCTYPE svg PUBLIC "-//W3C//DTD SVG 1.1//EN"
 "http://www.w3.org/Graphics/SVG/1.1/DTD/svg11.dtd">
<!-- Generated by graphviz version 12.1.2 (20240928.0832)
 -->
<!-- Title: classes Pages: 1 -->
<svg width="3395pt" height="502pt"
 viewBox="0.00 0.00 3394.88 501.50" xmlns="http://www.w3.org/2000/svg" xmlns:xlink="http://www.w3.org/1999/xlink">
<g id="graph0" class="graph" transform="scale(1 1) rotate(0) translate(4 497.5)">
<title>classes</title>
<polygon fill="white" stroke="none" points="-4,4 -4,-497.5 3390.88,-497.5 3390.88,4 -4,4"/>
<!-- crypto_calculator.models.CoreSpecificRisk -->
<g id="node1" class="node">
<title>crypto_calculator.models.CoreSpecificRisk</title>
<polygon fill="none" stroke="black" points="0,-41.75 0,-131.75 151.75,-131.75 151.75,-41.75 0,-41.75"/>
<text text-anchor="start" x="28.25" y="-114.45" font-family="Times New Roman,serif" font-size="14.00">CoreSpecificRisk</text>
<polyline fill="none" stroke="black" points="0,-107.25 151.75,-107.25"/>
<text text-anchor="start" x="8" y="-89.95" font-family="Times New Roman,serif" font-size="14.00">half_life : IntegerField</text>
<text text-anchor="start" x="8" y="-73.45" font-family="Times New Roman,serif" font-size="14.00">specific_risk : FloatField</text>
<polyline fill="none" stroke="black" points="0,-66.25 151.75,-66.25"/>
<text text-anchor="start" x="74" y="-48.95" font-family="Times New Roman,serif" font-size="14.00"> </text>
</g>
<!-- crypto_calculator.models.DateIdTableWithVersionDate -->
<g id="node4" class="node">
<title>crypto_calculator.models.DateIdTableWithVersionDate</title>
<polygon fill="none" stroke="black" points="70.62,-251.25 70.62,-324.75 247.12,-324.75 247.12,-251.25 70.62,-251.25"/>
<text text-anchor="start" x="78.62" y="-307.45" font-family="Times New Roman,serif" font-size="14.00">DateIdTableWithVersionDate</text>
<polyline fill="none" stroke="black" points="70.62,-300.25 247.12,-300.25"/>
<text text-anchor="start" x="92.12" y="-282.95" font-family="Times New Roman,serif" font-size="14.00">version_date : DateField</text>
<polyline fill="none" stroke="black" points="70.62,-275.75 247.12,-275.75"/>
<text text-anchor="start" x="157" y="-258.45" font-family="Times New Roman,serif" font-size="14.00"> </text>
</g>
<!-- crypto_calculator.models.CoreSpecificRisk&#45;&gt;crypto_calculator.models.DateIdTableWithVersionDate -->
<g id="edge1" class="edge">
<title>crypto_calculator.models.CoreSpecificRisk&#45;&gt;crypto_calculator.models.DateIdTableWithVersionDate</title>
<path fill="none" stroke="black" d="M94.3,-131.97C107.74,-164.25 125.93,-207.9 139.57,-240.66"/>
<polygon fill="none" stroke="black" points="136.17,-241.61 143.25,-249.49 142.64,-238.91 136.17,-241.61"/>
</g>
<!-- crypto_calculator.models.DateIdTable -->
<g id="node2" class="node">
<title>crypto_calculator.models.DateIdTable</title>
<polygon fill="none" stroke="black" points="282.38,-403 282.38,-493 385.38,-493 385.38,-403 282.38,-403"/>
<text text-anchor="start" x="300.5" y="-475.7" font-family="Times New Roman,serif" font-size="14.00">DateIdTable</text>
<polyline fill="none" stroke="black" points="282.38,-468.5 385.38,-468.5"/>
<text text-anchor="start" x="290.38" y="-451.2" font-family="Times New Roman,serif" font-size="14.00">date : DateField</text>
<text text-anchor="start" x="290.38" y="-434.7" font-family="Times New Roman,serif" font-size="14.00">id : AutoField</text>
<polyline fill="none" stroke="black" points="282.38,-427.5 385.38,-427.5"/>
<text text-anchor="start" x="332" y="-410.2" font-family="Times New Roman,serif" font-size="14.00"> </text>
</g>
<!-- crypto_calculator.models.DateIdTableWithSymbol -->
<g id="node3" class="node">
<title>crypto_calculator.models.DateIdTableWithSymbol</title>
<polygon fill="none" stroke="black" points="348.62,-251.25 348.62,-324.75 501.12,-324.75 501.12,-251.25 348.62,-251.25"/>
<text text-anchor="start" x="356.62" y="-307.45" font-family="Times New Roman,serif" font-size="14.00">DateIdTableWithSymbol</text>
<polyline fill="none" stroke="black" points="348.62,-300.25 501.12,-300.25"/>
<text text-anchor="start" x="372" y="-282.95" font-family="Times New Roman,serif" font-size="14.00">symbol : CharField</text>
<polyline fill="none" stroke="black" points="348.62,-275.75 501.12,-275.75"/>
<text text-anchor="start" x="423" y="-258.45" font-family="Times New Roman,serif" font-size="14.00"> </text>
</g>
<!-- crypto_calculator.models.DateIdTableWithSymbol&#45;&gt;crypto_calculator.models.DateIdTable -->
<g id="edge2" class="edge">
<title>crypto_calculator.models.DateIdTableWithSymbol&#45;&gt;crypto_calculator.models.DateIdTable</title>
<path fill="none" stroke="black" d="M404,-325.25C392.43,-345.33 377.83,-370.68 364.95,-393.04"/>
<polygon fill="none" stroke="black" points="362.07,-391.03 360.12,-401.44 368.14,-394.52 362.07,-391.03"/>
</g>
<!-- crypto_calculator.models.DateIdTableWithVersionDate&#45;&gt;crypto_calculator.models.DateIdTable -->
<g id="edge3" class="edge">
<title>crypto_calculator.models.DateIdTableWithVersionDate&#45;&gt;crypto_calculator.models.DateIdTable</title>
<path fill="none" stroke="black" d="M199.02,-325.25C221.96,-345.96 251.11,-372.28 276.44,-395.14"/>
<polygon fill="none" stroke="black" points="273.97,-397.63 283.74,-401.74 278.66,-392.44 273.97,-397.63"/>
</g>
<!-- crypto_calculator.models.DatePrimaryKey -->
<g id="node5" class="node">
<title>crypto_calculator.models.DatePrimaryKey</title>
<polygon fill="none" stroke="black" points="1070.75,-411.25 1070.75,-484.75 1179,-484.75 1179,-411.25 1070.75,-411.25"/>
<text text-anchor="start" x="1078.75" y="-467.45" font-family="Times New Roman,serif" font-size="14.00">DatePrimaryKey</text>
<polyline fill="none" stroke="black" points="1070.75,-460.25 1179,-460.25"/>
<text text-anchor="start" x="1081.38" y="-442.95" font-family="Times New Roman,serif" font-size="14.00">date : DateField</text>
<polyline fill="none" stroke="black" points="1070.75,-435.75 1179,-435.75"/>
<text text-anchor="start" x="1123" y="-418.45" font-family="Times New Roman,serif" font-size="14.00"> </text>
</g>
<!-- crypto_calculator.models.DatePrimaryKeyWithVersionDate -->
<g id="node6" class="node">
<title>crypto_calculator.models.DatePrimaryKeyWithVersionDate</title>
<polygon fill="none" stroke="black" points="1122.88,-251.25 1122.88,-324.75 1324.88,-324.75 1324.88,-251.25 1122.88,-251.25"/>
<text text-anchor="start" x="1130.88" y="-307.45" font-family="Times New Roman,serif" font-size="14.00">DatePrimaryKeyWithVersionDate</text>
<polyline fill="none" stroke="black" points="1122.88,-300.25 1324.88,-300.25"/>
<text text-anchor="start" x="1156.75" y="-282.95" font-family="Times New Roman,serif" font-size="14.00">version_date : CharField</text>
<polyline fill="none" stroke="black" points="1122.88,-275.75 1324.88,-275.75"/>
<text text-anchor="start" x="1222" y="-258.45" font-family="Times New Roman,serif" font-size="14.00"> </text>
</g>
<!-- crypto_calculator.models.DatePrimaryKeyWithVersionDate&#45;&gt;crypto_calculator.models.DatePrimaryKey -->
<g id="edge4" class="edge">
<title>crypto_calculator.models.DatePrimaryKeyWithVersionDate&#45;&gt;crypto_calculator.models.DatePrimaryKey</title>
<path fill="none" stroke="black" d="M1201.16,-325.25C1187.01,-347.83 1168.69,-377.08 1153.54,-401.25"/>
<polygon fill="none" stroke="black" points="1150.63,-399.31 1148.29,-409.64 1156.56,-403.02 1150.63,-399.31"/>
</g>
<!-- crypto_calculator.models.Exposures -->
<g id="node7" class="node">
<title>crypto_calculator.models.Exposures</title>
<polygon fill="none" stroke="black" points="692.25,-33.5 692.25,-140 911.5,-140 911.5,-33.5 692.25,-33.5"/>
<text text-anchor="start" x="773.75" y="-122.7" font-family="Times New Roman,serif" font-size="14.00">Exposures</text>
<polyline fill="none" stroke="black" points="692.25,-115.5 911.5,-115.5"/>
<text text-anchor="start" x="700.25" y="-98.2" font-family="Times New Roman,serif" font-size="14.00">core_universe : IntegerField</text>
<text text-anchor="start" x="700.25" y="-81.7" font-family="Times New Roman,serif" font-size="14.00">return_field : FloatField</text>
<text text-anchor="start" x="700.25" y="-65.2" font-family="Times New Roman,serif" font-size="14.00">transformed_market_cap : FloatField</text>
<polyline fill="none" stroke="black" points="692.25,-58 911.5,-58"/>
<text text-anchor="start" x="800" y="-40.7" font-family="Times New Roman,serif" font-size="14.00"> </text>
</g>
<!-- crypto_calculator.models.Exposures&#45;&gt;crypto_calculator.models.DateIdTableWithSymbol -->
<g id="edge5" class="edge">
<title>crypto_calculator.models.Exposures&#45;&gt;crypto_calculator.models.DateIdTableWithSymbol</title>
<path fill="none" stroke="black" d="M733.98,-140.39C717.67,-151.98 700.01,-163.7 682.88,-173.5 628.15,-204.79 563.16,-233.34 512.1,-253.97"/>
<polygon fill="none" stroke="black" points="510.81,-250.72 502.83,-257.69 513.41,-257.22 510.81,-250.72"/>
</g>
<!-- crypto_calculator.models.FactorEstimResultContainer -->
<g id="node8" class="node">
<title>crypto_calculator.models.FactorEstimResultContainer</title>
<polygon fill="none" stroke="black" points="758.62,-210 758.62,-366 929.12,-366 929.12,-210 758.62,-210"/>
<text text-anchor="start" x="766.62" y="-348.7" font-family="Times New Roman,serif" font-size="14.00">FactorEstimResultContainer</text>
<polyline fill="none" stroke="black" points="758.62,-341.5 929.12,-341.5"/>
<text text-anchor="start" x="778.62" y="-324.2" font-family="Times New Roman,serif" font-size="14.00">market : IntegerField</text>
<text text-anchor="start" x="778.62" y="-307.7" font-family="Times New Roman,serif" font-size="14.00">momentum : FloatField</text>
<text text-anchor="start" x="778.62" y="-291.2" font-family="Times New Roman,serif" font-size="14.00">new_coin : FloatField</text>
<text text-anchor="start" x="778.62" y="-274.7" font-family="Times New Roman,serif" font-size="14.00">reversal : FloatField</text>
<text text-anchor="start" x="778.62" y="-258.2" font-family="Times New Roman,serif" font-size="14.00">size : FloatField</text>
<text text-anchor="start" x="778.62" y="-241.7" font-family="Times New Roman,serif" font-size="14.00">volume : FloatField</text>
<polyline fill="none" stroke="black" points="758.62,-234.5 929.12,-234.5"/>
<text text-anchor="start" x="842" y="-217.2" font-family="Times New Roman,serif" font-size="14.00"> </text>
</g>
<!-- crypto_calculator.models.Exposures&#45;&gt;crypto_calculator.models.FactorEstimResultContainer -->
<g id="edge6" class="edge">
<title>crypto_calculator.models.Exposures&#45;&gt;crypto_calculator.models.FactorEstimResultContainer</title>
<path fill="none" stroke="black" d="M812.96,-140.36C816.72,-158.18 821.02,-178.6 825.2,-198.43"/>
<polygon fill="none" stroke="black" points="821.78,-199.14 827.27,-208.2 828.63,-197.7 821.78,-199.14"/>
</g>
<!-- crypto_calculator.models.FactorReturns -->
<g id="node9" class="node">
<title>crypto_calculator.models.FactorReturns</title>
<polygon fill="none" stroke="black" points="929.62,-62.25 929.62,-111.25 1022.12,-111.25 1022.12,-62.25 929.62,-62.25"/>
<text text-anchor="start" x="937.62" y="-93.95" font-family="Times New Roman,serif" font-size="14.00">FactorReturns</text>
<polyline fill="none" stroke="black" points="929.62,-86.75 1022.12,-86.75"/>
<polyline fill="none" stroke="black" points="929.62,-86.75 1022.12,-86.75"/>
<text text-anchor="start" x="974" y="-69.45" font-family="Times New Roman,serif" font-size="14.00"> </text>
</g>
<!-- crypto_calculator.models.FactorReturns&#45;&gt;crypto_calculator.models.DatePrimaryKeyWithVersionDate -->
<g id="edge7" class="edge">
<title>crypto_calculator.models.FactorReturns&#45;&gt;crypto_calculator.models.DatePrimaryKeyWithVersionDate</title>
<path fill="none" stroke="black" d="M986.65,-111.57C996.22,-130.49 1011.8,-156.49 1031.88,-173.5 1062.24,-199.23 1079.21,-189.94 1113.88,-209.5 1132.07,-219.77 1150.98,-232.32 1167.88,-244.31"/>
<polygon fill="none" stroke="black" points="1165.65,-247.02 1175.82,-250.01 1169.74,-241.33 1165.65,-247.02"/>
</g>
<!-- crypto_calculator.models.FactorReturns&#45;&gt;crypto_calculator.models.FactorEstimResultContainer -->
<g id="edge8" class="edge">
<title>crypto_calculator.models.FactorReturns&#45;&gt;crypto_calculator.models.FactorEstimResultContainer</title>
<path fill="none" stroke="black" d="M960.86,-111.51C949.9,-128.79 934.61,-152.68 920.88,-173.5 915.13,-182.2 909.1,-191.25 903.05,-200.27"/>
<polygon fill="none" stroke="black" points="900.27,-198.13 897.59,-208.38 906.08,-202.04 900.27,-198.13"/>
</g>
<!-- crypto_calculator.models.FactorEstimResultContainer.Meta -->
<g id="node10" class="node">
<title>crypto_calculator.models.FactorEstimResultContainer.Meta</title>
<polygon fill="none" stroke="black" points="1346.25,-50 1346.25,-123.5 1439.5,-123.5 1439.5,-50 1346.25,-50"/>
<text text-anchor="start" x="1378.62" y="-106.2" font-family="Times New Roman,serif" font-size="14.00">Meta</text>
<polyline fill="none" stroke="black" points="1346.25,-99 1439.5,-99"/>
<text text-anchor="start" x="1354.25" y="-81.7" font-family="Times New Roman,serif" font-size="14.00">abstract : bool</text>
<polyline fill="none" stroke="black" points="1346.25,-74.5 1439.5,-74.5"/>
<text text-anchor="start" x="1391" y="-57.2" font-family="Times New Roman,serif" font-size="14.00"> </text>
</g>
<!-- crypto_calculator.models.DateIdTable.Meta -->
<g id="node11" class="node">
<title>crypto_calculator.models.DateIdTable.Meta</title>
<polygon fill="none" stroke="black" points="1457.25,-50 1457.25,-123.5 1550.5,-123.5 1550.5,-50 1457.25,-50"/>
<text text-anchor="start" x="1489.62" y="-106.2" font-family="Times New Roman,serif" font-size="14.00">Meta</text>
<polyline fill="none" stroke="black" points="1457.25,-99 1550.5,-99"/>
<text text-anchor="start" x="1465.25" y="-81.7" font-family="Times New Roman,serif" font-size="14.00">abstract : bool</text>
<polyline fill="none" stroke="black" points="1457.25,-74.5 1550.5,-74.5"/>
<text text-anchor="start" x="1502" y="-57.2" font-family="Times New Roman,serif" font-size="14.00"> </text>
</g>
<!-- crypto_calculator.models.DatePrimaryKey.Meta -->
<g id="node12" class="node">
<title>crypto_calculator.models.DatePrimaryKey.Meta</title>
<polygon fill="none" stroke="black" points="1568.25,-50 1568.25,-123.5 1661.5,-123.5 1661.5,-50 1568.25,-50"/>
<text text-anchor="start" x="1600.62" y="-106.2" font-family="Times New Roman,serif" font-size="14.00">Meta</text>
<polyline fill="none" stroke="black" points="1568.25,-99 1661.5,-99"/>
<text text-anchor="start" x="1576.25" y="-81.7" font-family="Times New Roman,serif" font-size="14.00">abstract : bool</text>
<polyline fill="none" stroke="black" points="1568.25,-74.5 1661.5,-74.5"/>
<text text-anchor="start" x="1613" y="-57.2" font-family="Times New Roman,serif" font-size="14.00"> </text>
</g>
<!-- crypto_calculator.models.DatePrimaryKeyWithVersionDate.Meta -->
<g id="node13" class="node">
<title>crypto_calculator.models.DatePrimaryKeyWithVersionDate.Meta</title>
<polygon fill="none" stroke="black" points="1679.25,-50 1679.25,-123.5 1772.5,-123.5 1772.5,-50 1679.25,-50"/>
<text text-anchor="start" x="1711.62" y="-106.2" font-family="Times New Roman,serif" font-size="14.00">Meta</text>
<polyline fill="none" stroke="black" points="1679.25,-99 1772.5,-99"/>
<text text-anchor="start" x="1687.25" y="-81.7" font-family="Times New Roman,serif" font-size="14.00">abstract : bool</text>
<polyline fill="none" stroke="black" points="1679.25,-74.5 1772.5,-74.5"/>
<text text-anchor="start" x="1724" y="-57.2" font-family="Times New Roman,serif" font-size="14.00"> </text>
</g>
<!-- crypto_calculator.models.DateIdTableWithVersionDate.Meta -->
<g id="node14" class="node">
<title>crypto_calculator.models.DateIdTableWithVersionDate.Meta</title>
<polygon fill="none" stroke="black" points="1790.25,-50 1790.25,-123.5 1883.5,-123.5 1883.5,-50 1790.25,-50"/>
<text text-anchor="start" x="1822.62" y="-106.2" font-family="Times New Roman,serif" font-size="14.00">Meta</text>
<polyline fill="none" stroke="black" points="1790.25,-99 1883.5,-99"/>
<text text-anchor="start" x="1798.25" y="-81.7" font-family="Times New Roman,serif" font-size="14.00">abstract : bool</text>
<polyline fill="none" stroke="black" points="1790.25,-74.5 1883.5,-74.5"/>
<text text-anchor="start" x="1835" y="-57.2" font-family="Times New Roman,serif" font-size="14.00"> </text>
</g>
<!-- crypto_calculator.models.DateIdTableWithSymbol.Meta -->
<g id="node15" class="node">
<title>crypto_calculator.models.DateIdTableWithSymbol.Meta</title>
<polygon fill="none" stroke="black" points="1901.25,-50 1901.25,-123.5 1994.5,-123.5 1994.5,-50 1901.25,-50"/>
<text text-anchor="start" x="1933.62" y="-106.2" font-family="Times New Roman,serif" font-size="14.00">Meta</text>
<polyline fill="none" stroke="black" points="1901.25,-99 1994.5,-99"/>
<text text-anchor="start" x="1909.25" y="-81.7" font-family="Times New Roman,serif" font-size="14.00">abstract : bool</text>
<polyline fill="none" stroke="black" points="1901.25,-74.5 1994.5,-74.5"/>
<text text-anchor="start" x="1946" y="-57.2" font-family="Times New Roman,serif" font-size="14.00"> </text>
</g>
<!-- crypto_calculator.models.RawPriceData.Meta -->
<g id="node16" class="node">
<title>crypto_calculator.models.RawPriceData.Meta</title>
<polygon fill="none" stroke="black" points="2012.88,-33.5 2012.88,-140 2154.88,-140 2154.88,-33.5 2012.88,-33.5"/>
<text text-anchor="start" x="2069.62" y="-122.7" font-family="Times New Roman,serif" font-size="14.00">Meta</text>
<polyline fill="none" stroke="black" points="2012.88,-115.5 2154.88,-115.5"/>
<text text-anchor="start" x="2020.88" y="-98.2" font-family="Times New Roman,serif" font-size="14.00">db_table : str</text>
<text text-anchor="start" x="2020.88" y="-81.7" font-family="Times New Roman,serif" font-size="14.00">managed : bool</text>
<text text-anchor="start" x="2020.88" y="-65.2" font-family="Times New Roman,serif" font-size="14.00">unique_together : tuple</text>
<polyline fill="none" stroke="black" points="2012.88,-58 2154.88,-58"/>
<text text-anchor="start" x="2082" y="-40.7" font-family="Times New Roman,serif" font-size="14.00"> </text>
</g>
<!-- crypto_calculator.models.Returns.Meta -->
<g id="node17" class="node">
<title>crypto_calculator.models.Returns.Meta</title>
<polygon fill="none" stroke="black" points="2172.88,-33.5 2172.88,-140 2314.88,-140 2314.88,-33.5 2172.88,-33.5"/>
<text text-anchor="start" x="2229.62" y="-122.7" font-family="Times New Roman,serif" font-size="14.00">Meta</text>
<polyline fill="none" stroke="black" points="2172.88,-115.5 2314.88,-115.5"/>
<text text-anchor="start" x="2180.88" y="-98.2" font-family="Times New Roman,serif" font-size="14.00">db_table : str</text>
<text text-anchor="start" x="2180.88" y="-81.7" font-family="Times New Roman,serif" font-size="14.00">managed : bool</text>
<text text-anchor="start" x="2180.88" y="-65.2" font-family="Times New Roman,serif" font-size="14.00">unique_together : tuple</text>
<polyline fill="none" stroke="black" points="2172.88,-58 2314.88,-58"/>
<text text-anchor="start" x="2242" y="-40.7" font-family="Times New Roman,serif" font-size="14.00"> </text>
</g>
<!-- crypto_calculator.models.RiskFreeRates.Meta -->
<g id="node18" class="node">
<title>crypto_calculator.models.RiskFreeRates.Meta</title>
<polygon fill="none" stroke="black" points="2332.5,-41.75 2332.5,-131.75 2433.25,-131.75 2433.25,-41.75 2332.5,-41.75"/>
<text text-anchor="start" x="2368.62" y="-114.45" font-family="Times New Roman,serif" font-size="14.00">Meta</text>
<polyline fill="none" stroke="black" points="2332.5,-107.25 2433.25,-107.25"/>
<text text-anchor="start" x="2340.5" y="-89.95" font-family="Times New Roman,serif" font-size="14.00">db_table : str</text>
<text text-anchor="start" x="2340.5" y="-73.45" font-family="Times New Roman,serif" font-size="14.00">managed : bool</text>
<polyline fill="none" stroke="black" points="2332.5,-66.25 2433.25,-66.25"/>
<text text-anchor="start" x="2381" y="-48.95" font-family="Times New Roman,serif" font-size="14.00"> </text>
</g>
<!-- crypto_calculator.models.Exposures.Meta -->
<g id="node19" class="node">
<title>crypto_calculator.models.Exposures.Meta</title>
<polygon fill="none" stroke="black" points="2450.88,-33.5 2450.88,-140 2592.88,-140 2592.88,-33.5 2450.88,-33.5"/>
<text text-anchor="start" x="2507.62" y="-122.7" font-family="Times New Roman,serif" font-size="14.00">Meta</text>
<polyline fill="none" stroke="black" points="2450.88,-115.5 2592.88,-115.5"/>
<text text-anchor="start" x="2458.88" y="-98.2" font-family="Times New Roman,serif" font-size="14.00">db_table : str</text>
<text text-anchor="start" x="2458.88" y="-81.7" font-family="Times New Roman,serif" font-size="14.00">managed : bool</text>
<text text-anchor="start" x="2458.88" y="-65.2" font-family="Times New Roman,serif" font-size="14.00">unique_together : tuple</text>
<polyline fill="none" stroke="black" points="2450.88,-58 2592.88,-58"/>
<text text-anchor="start" x="2520" y="-40.7" font-family="Times New Roman,serif" font-size="14.00"> </text>
</g>
<!-- crypto_calculator.models.FactorReturns.Meta -->
<g id="node20" class="node">
<title>crypto_calculator.models.FactorReturns.Meta</title>
<polygon fill="none" stroke="black" points="2610.5,-41.75 2610.5,-131.75 2711.25,-131.75 2711.25,-41.75 2610.5,-41.75"/>
<text text-anchor="start" x="2646.62" y="-114.45" font-family="Times New Roman,serif" font-size="14.00">Meta</text>
<polyline fill="none" stroke="black" points="2610.5,-107.25 2711.25,-107.25"/>
<text text-anchor="start" x="2618.5" y="-89.95" font-family="Times New Roman,serif" font-size="14.00">db_table : str</text>
<text text-anchor="start" x="2618.5" y="-73.45" font-family="Times New Roman,serif" font-size="14.00">managed : bool</text>
<polyline fill="none" stroke="black" points="2610.5,-66.25 2711.25,-66.25"/>
<text text-anchor="start" x="2659" y="-48.95" font-family="Times New Roman,serif" font-size="14.00"> </text>
</g>
<!-- crypto_calculator.models.RSquares.Meta -->
<g id="node21" class="node">
<title>crypto_calculator.models.RSquares.Meta</title>
<polygon fill="none" stroke="black" points="2729.5,-41.75 2729.5,-131.75 2830.25,-131.75 2830.25,-41.75 2729.5,-41.75"/>
<text text-anchor="start" x="2765.62" y="-114.45" font-family="Times New Roman,serif" font-size="14.00">Meta</text>
<polyline fill="none" stroke="black" points="2729.5,-107.25 2830.25,-107.25"/>
<text text-anchor="start" x="2737.5" y="-89.95" font-family="Times New Roman,serif" font-size="14.00">db_table : str</text>
<text text-anchor="start" x="2737.5" y="-73.45" font-family="Times New Roman,serif" font-size="14.00">managed : bool</text>
<polyline fill="none" stroke="black" points="2729.5,-66.25 2830.25,-66.25"/>
<text text-anchor="start" x="2778" y="-48.95" font-family="Times New Roman,serif" font-size="14.00"> </text>
</g>
<!-- crypto_calculator.models.SpecificReturns.Meta -->
<g id="node22" class="node">
<title>crypto_calculator.models.SpecificReturns.Meta</title>
<polygon fill="none" stroke="black" points="2847.88,-33.5 2847.88,-140 2989.88,-140 2989.88,-33.5 2847.88,-33.5"/>
<text text-anchor="start" x="2904.62" y="-122.7" font-family="Times New Roman,serif" font-size="14.00">Meta</text>
<polyline fill="none" stroke="black" points="2847.88,-115.5 2989.88,-115.5"/>
<text text-anchor="start" x="2855.88" y="-98.2" font-family="Times New Roman,serif" font-size="14.00">db_table : str</text>
<text text-anchor="start" x="2855.88" y="-81.7" font-family="Times New Roman,serif" font-size="14.00">managed : bool</text>
<text text-anchor="start" x="2855.88" y="-65.2" font-family="Times New Roman,serif" font-size="14.00">unique_together : tuple</text>
<polyline fill="none" stroke="black" points="2847.88,-58 2989.88,-58"/>
<text text-anchor="start" x="2917" y="-40.7" font-family="Times New Roman,serif" font-size="14.00"> </text>
</g>
<!-- crypto_calculator.models.TStatistics.Meta -->
<g id="node23" class="node">
<title>crypto_calculator.models.TStatistics.Meta</title>
<polygon fill="none" stroke="black" points="3007.5,-41.75 3007.5,-131.75 3108.25,-131.75 3108.25,-41.75 3007.5,-41.75"/>
<text text-anchor="start" x="3043.62" y="-114.45" font-family="Times New Roman,serif" font-size="14.00">Meta</text>
<polyline fill="none" stroke="black" points="3007.5,-107.25 3108.25,-107.25"/>
<text text-anchor="start" x="3015.5" y="-89.95" font-family="Times New Roman,serif" font-size="14.00">db_table : str</text>
<text text-anchor="start" x="3015.5" y="-73.45" font-family="Times New Roman,serif" font-size="14.00">managed : bool</text>
<polyline fill="none" stroke="black" points="3007.5,-66.25 3108.25,-66.25"/>
<text text-anchor="start" x="3056" y="-48.95" font-family="Times New Roman,serif" font-size="14.00"> </text>
</g>
<!-- crypto_calculator.models.Vifs.Meta -->
<g id="node24" class="node">
<title>crypto_calculator.models.Vifs.Meta</title>
<polygon fill="none" stroke="black" points="3126.5,-41.75 3126.5,-131.75 3227.25,-131.75 3227.25,-41.75 3126.5,-41.75"/>
<text text-anchor="start" x="3162.62" y="-114.45" font-family="Times New Roman,serif" font-size="14.00">Meta</text>
<polyline fill="none" stroke="black" points="3126.5,-107.25 3227.25,-107.25"/>
<text text-anchor="start" x="3134.5" y="-89.95" font-family="Times New Roman,serif" font-size="14.00">db_table : str</text>
<text text-anchor="start" x="3134.5" y="-73.45" font-family="Times New Roman,serif" font-size="14.00">managed : bool</text>
<polyline fill="none" stroke="black" points="3126.5,-66.25 3227.25,-66.25"/>
<text text-anchor="start" x="3175" y="-48.95" font-family="Times New Roman,serif" font-size="14.00"> </text>
</g>
<!-- crypto_calculator.models.CoreSpecificRisk.Meta -->
<g id="node25" class="node">
<title>crypto_calculator.models.CoreSpecificRisk.Meta</title>
<polygon fill="none" stroke="black" points="3244.88,-33.5 3244.88,-140 3386.88,-140 3386.88,-33.5 3244.88,-33.5"/>
<text text-anchor="start" x="3301.62" y="-122.7" font-family="Times New Roman,serif" font-size="14.00">Meta</text>
<polyline fill="none" stroke="black" points="3244.88,-115.5 3386.88,-115.5"/>
<text text-anchor="start" x="3252.88" y="-98.2" font-family="Times New Roman,serif" font-size="14.00">db_table : str</text>
<text text-anchor="start" x="3252.88" y="-81.7" font-family="Times New Roman,serif" font-size="14.00">managed : bool</text>
<text text-anchor="start" x="3252.88" y="-65.2" font-family="Times New Roman,serif" font-size="14.00">unique_together : tuple</text>
<polyline fill="none" stroke="black" points="3244.88,-58 3386.88,-58"/>
<text text-anchor="start" x="3314" y="-40.7" font-family="Times New Roman,serif" font-size="14.00"> </text>
</g>
<!-- crypto_calculator.models.RSquares -->
<g id="node26" class="node">
<title>crypto_calculator.models.RSquares</title>
<polygon fill="none" stroke="black" points="1203.88,-33.5 1203.88,-140 1327.88,-140 1327.88,-33.5 1203.88,-33.5"/>
<text text-anchor="start" x="1240" y="-122.7" font-family="Times New Roman,serif" font-size="14.00">RSquares</text>
<polyline fill="none" stroke="black" points="1203.88,-115.5 1327.88,-115.5"/>
<text text-anchor="start" x="1211.88" y="-98.2" font-family="Times New Roman,serif" font-size="14.00">nobs : FloatField</text>
<text text-anchor="start" x="1211.88" y="-81.7" font-family="Times New Roman,serif" font-size="14.00">r2_adj : FloatField</text>
<text text-anchor="start" x="1211.88" y="-65.2" font-family="Times New Roman,serif" font-size="14.00">r2_core : FloatField</text>
<polyline fill="none" stroke="black" points="1203.88,-58 1327.88,-58"/>
<text text-anchor="start" x="1264" y="-40.7" font-family="Times New Roman,serif" font-size="14.00"> </text>
</g>
<!-- crypto_calculator.models.RSquares&#45;&gt;crypto_calculator.models.DatePrimaryKeyWithVersionDate -->
<g id="edge9" class="edge">
<title>crypto_calculator.models.RSquares&#45;&gt;crypto_calculator.models.DatePrimaryKeyWithVersionDate</title>
<path fill="none" stroke="black" d="M1254.79,-140.36C1248.28,-171.24 1240.12,-209.93 1233.82,-239.81"/>
<polygon fill="none" stroke="black" points="1230.46,-238.81 1231.82,-249.32 1237.3,-240.26 1230.46,-238.81"/>
</g>
<!-- crypto_calculator.models.RawPriceData -->
<g id="node27" class="node">
<title>crypto_calculator.models.RawPriceData</title>
<polygon fill="none" stroke="black" points="351.62,-0.5 351.62,-173 498.12,-173 498.12,-0.5 351.62,-0.5"/>
<text text-anchor="start" x="385.88" y="-155.7" font-family="Times New Roman,serif" font-size="14.00">RawPriceData</text>
<polyline fill="none" stroke="black" points="351.62,-148.5 498.12,-148.5"/>
<text text-anchor="start" x="359.62" y="-131.2" font-family="Times New Roman,serif" font-size="14.00">close : FloatField</text>
<text text-anchor="start" x="359.62" y="-114.7" font-family="Times New Roman,serif" font-size="14.00">dividends : FloatField</text>
<text text-anchor="start" x="359.62" y="-98.2" font-family="Times New Roman,serif" font-size="14.00">high : FloatField</text>
<text text-anchor="start" x="359.62" y="-81.7" font-family="Times New Roman,serif" font-size="14.00">low : FloatField</text>
<text text-anchor="start" x="359.62" y="-65.2" font-family="Times New Roman,serif" font-size="14.00">open : FloatField</text>
<text text-anchor="start" x="359.62" y="-48.7" font-family="Times New Roman,serif" font-size="14.00">stock_splits : FloatField</text>
<text text-anchor="start" x="359.62" y="-32.2" font-family="Times New Roman,serif" font-size="14.00">volume : IntegerField</text>
<polyline fill="none" stroke="black" points="351.62,-25 498.12,-25"/>
<text text-anchor="start" x="423" y="-7.7" font-family="Times New Roman,serif" font-size="14.00"> </text>
</g>
<!-- crypto_calculator.models.RawPriceData&#45;&gt;crypto_calculator.models.DateIdTableWithSymbol -->
<g id="edge10" class="edge">
<title>crypto_calculator.models.RawPriceData&#45;&gt;crypto_calculator.models.DateIdTableWithSymbol</title>
<path fill="none" stroke="black" d="M424.88,-173.41C424.88,-196.05 424.88,-219.67 424.88,-239.47"/>
<polygon fill="none" stroke="black" points="421.38,-239.45 424.88,-249.45 428.38,-239.45 421.38,-239.45"/>
</g>
<!-- crypto_calculator.models.Returns -->
<g id="node28" class="node">
<title>crypto_calculator.models.Returns</title>
<polygon fill="none" stroke="black" points="516,-33.5 516,-140 673.75,-140 673.75,-33.5 516,-33.5"/>
<text text-anchor="start" x="573.88" y="-122.7" font-family="Times New Roman,serif" font-size="14.00">Returns</text>
<polyline fill="none" stroke="black" points="516,-115.5 673.75,-115.5"/>
<text text-anchor="start" x="524" y="-98.2" font-family="Times New Roman,serif" font-size="14.00">return_field : FloatField</text>
<text text-anchor="start" x="524" y="-81.7" font-family="Times New Roman,serif" font-size="14.00">risk_free_rate : FloatField</text>
<text text-anchor="start" x="524" y="-65.2" font-family="Times New Roman,serif" font-size="14.00">total_return : FloatField</text>
<polyline fill="none" stroke="black" points="516,-58 673.75,-58"/>
<text text-anchor="start" x="593" y="-40.7" font-family="Times New Roman,serif" font-size="14.00"> </text>
</g>
<!-- crypto_calculator.models.Returns&#45;&gt;crypto_calculator.models.DateIdTableWithSymbol -->
<g id="edge11" class="edge">
<title>crypto_calculator.models.Returns&#45;&gt;crypto_calculator.models.DateIdTableWithSymbol</title>
<path fill="none" stroke="black" d="M549.99,-140.36C522.95,-172.05 488.88,-211.98 463.13,-242.17"/>
<polygon fill="none" stroke="black" points="460.57,-239.77 456.74,-249.65 465.89,-244.32 460.57,-239.77"/>
</g>
<!-- crypto_calculator.models.RiskFreeRates -->
<g id="node29" class="node">
<title>crypto_calculator.models.RiskFreeRates</title>
<polygon fill="none" stroke="black" points="947,-234.75 947,-341.25 1104.75,-341.25 1104.75,-234.75 947,-234.75"/>
<text text-anchor="start" x="986.5" y="-323.95" font-family="Times New Roman,serif" font-size="14.00">RiskFreeRates</text>
<polyline fill="none" stroke="black" points="947,-316.75 1104.75,-316.75"/>
<text text-anchor="start" x="955" y="-299.45" font-family="Times New Roman,serif" font-size="14.00">risk_free_rate : FloatField</text>
<text text-anchor="start" x="955" y="-282.95" font-family="Times New Roman,serif" font-size="14.00">source : TextField</text>
<text text-anchor="start" x="955" y="-266.45" font-family="Times New Roman,serif" font-size="14.00">symbol : CharField</text>
<polyline fill="none" stroke="black" points="947,-259.25 1104.75,-259.25"/>
<text text-anchor="start" x="1024" y="-241.95" font-family="Times New Roman,serif" font-size="14.00"> </text>
</g>
<!-- crypto_calculator.models.RiskFreeRates&#45;&gt;crypto_calculator.models.DatePrimaryKey -->
<g id="edge12" class="edge">
<title>crypto_calculator.models.RiskFreeRates&#45;&gt;crypto_calculator.models.DatePrimaryKey</title>
<path fill="none" stroke="black" d="M1058.84,-341.61C1070.95,-360.94 1084.55,-382.65 1096.25,-401.32"/>
<polygon fill="none" stroke="black" points="1093.28,-403.16 1101.55,-409.78 1099.21,-399.44 1093.28,-403.16"/>
</g>
<!-- crypto_calculator.models.SpecificReturns -->
<g id="node30" class="node">
<title>crypto_calculator.models.SpecificReturns</title>
<polygon fill="none" stroke="black" points="170,-50 170,-123.5 333.75,-123.5 333.75,-50 170,-50"/>
<text text-anchor="start" x="208.75" y="-106.2" font-family="Times New Roman,serif" font-size="14.00">SpecificReturns</text>
<polyline fill="none" stroke="black" points="170,-99 333.75,-99"/>
<text text-anchor="start" x="178" y="-81.7" font-family="Times New Roman,serif" font-size="14.00">specific_return : FloatField</text>
<polyline fill="none" stroke="black" points="170,-74.5 333.75,-74.5"/>
<text text-anchor="start" x="250" y="-57.2" font-family="Times New Roman,serif" font-size="14.00"> </text>
</g>
<!-- crypto_calculator.models.SpecificReturns&#45;&gt;crypto_calculator.models.DateIdTableWithSymbol -->
<g id="edge13" class="edge">
<title>crypto_calculator.models.SpecificReturns&#45;&gt;crypto_calculator.models.DateIdTableWithSymbol</title>
<path fill="none" stroke="black" d="M283.2,-123.83C312.14,-157.16 355.21,-206.77 386.26,-242.53"/>
<polygon fill="none" stroke="black" points="383.3,-244.45 392.49,-249.71 388.58,-239.86 383.3,-244.45"/>
</g>
<!-- crypto_calculator.models.TStatistics -->
<g id="node31" class="node">
<title>crypto_calculator.models.TStatistics</title>
<polygon fill="none" stroke="black" points="1040.38,-62.25 1040.38,-111.25 1113.38,-111.25 1113.38,-62.25 1040.38,-62.25"/>
<text text-anchor="start" x="1048.38" y="-93.95" font-family="Times New Roman,serif" font-size="14.00">TStatistics</text>
<polyline fill="none" stroke="black" points="1040.38,-86.75 1113.38,-86.75"/>
<polyline fill="none" stroke="black" points="1040.38,-86.75 1113.38,-86.75"/>
<text text-anchor="start" x="1075" y="-69.45" font-family="Times New Roman,serif" font-size="14.00"> </text>
</g>
<!-- crypto_calculator.models.TStatistics&#45;&gt;crypto_calculator.models.DatePrimaryKeyWithVersionDate -->
<g id="edge14" class="edge">
<title>crypto_calculator.models.TStatistics&#45;&gt;crypto_calculator.models.DatePrimaryKeyWithVersionDate</title>
<path fill="none" stroke="black" d="M1087.76,-111.55C1096.31,-129.26 1109.04,-153.7 1122.88,-173.5 1139.73,-197.62 1161.07,-222.28 1179.79,-242.42"/>
<polygon fill="none" stroke="black" points="1177.2,-244.77 1186.6,-249.65 1182.3,-239.97 1177.2,-244.77"/>
</g>
<!-- crypto_calculator.models.TStatistics&#45;&gt;crypto_calculator.models.FactorEstimResultContainer -->
<g id="edge15" class="edge">
<title>crypto_calculator.models.TStatistics&#45;&gt;crypto_calculator.models.FactorEstimResultContainer</title>
<path fill="none" stroke="black" d="M1069.37,-111.43C1062.22,-130.52 1049.73,-156.83 1030.88,-173.5 1000.13,-200.68 979.39,-189.2 939.4,-209.24"/>
<polygon fill="none" stroke="black" points="937.82,-206.11 930.72,-213.98 941.17,-212.26 937.82,-206.11"/>
</g>
<!-- crypto_calculator.models.Vifs -->
<g id="node32" class="node">
<title>crypto_calculator.models.Vifs</title>
<polygon fill="none" stroke="black" points="1131.88,-62.25 1131.88,-111.25 1185.88,-111.25 1185.88,-62.25 1131.88,-62.25"/>
<text text-anchor="start" x="1147.38" y="-93.95" font-family="Times New Roman,serif" font-size="14.00">Vifs</text>
<polyline fill="none" stroke="black" points="1131.88,-86.75 1185.38,-86.75"/>
<polyline fill="none" stroke="black" points="1131.88,-86.75 1185.38,-86.75"/>
<text text-anchor="start" x="1156.75" y="-69.45" font-family="Times New Roman,serif" font-size="14.00"> </text>
</g>
<!-- crypto_calculator.models.Vifs&#45;&gt;crypto_calculator.models.DatePrimaryKeyWithVersionDate -->
<g id="edge16" class="edge">
<title>crypto_calculator.models.Vifs&#45;&gt;crypto_calculator.models.DatePrimaryKeyWithVersionDate</title>
<path fill="none" stroke="black" d="M1166.59,-111.39C1176.88,-142.95 1195.36,-199.58 1208.54,-239.99"/>
<polygon fill="none" stroke="black" points="1205.21,-241.07 1211.64,-249.49 1211.86,-238.9 1205.21,-241.07"/>
</g>
<!-- crypto_calculator.models.Vifs&#45;&gt;crypto_calculator.models.FactorEstimResultContainer -->
<g id="edge17" class="edge">
<title>crypto_calculator.models.Vifs&#45;&gt;crypto_calculator.models.FactorEstimResultContainer</title>
<path fill="none" stroke="black" d="M1155.22,-111.43C1150.92,-131.05 1141.79,-158.12 1122.88,-173.5 1060.55,-224.18 1017.3,-177.89 939.74,-209.25"/>
<polygon fill="none" stroke="black" points="938.73,-205.87 930.98,-213.1 941.55,-212.28 938.73,-205.87"/>
</g>
</g>
</svg>
